<?xml version="1.0" encoding="UTF-8"?>
<svg id="_Слой_1" data-name="Слой_1" xmlns="http://www.w3.org/2000/svg" version="1.1" viewBox="0 0 1000 1000">
  <!-- Generator: Adobe Illustrator 30.2.0, SVG Export Plug-In . SVG Version: 2.1.1 Build 105)  -->
  <defs>
    <style>
      .st0 {
        fill: #bc9a00;
        stroke-width: 10px;
      }

      .st0, .st1, .st2, .st3 {
        stroke: #000;
      }

      .st4, .st1 {
        fill: #fff;
      }

      .st1 {
        stroke-miterlimit: 10;
      }

      .st2 {
        stroke-width: 7px;
      }

      .st2, .st3 {
        fill: #ffd31e;
        stroke-miterlimit: 4;
      }

      .st3 {
        stroke-width: 10px;
      }
    </style>
  </defs>
  <g>
    <circle id="svg_4" class="st4" cx="500" cy="500" r="250"/>
    <circle id="svg_5" class="st0" cx="500" cy="500" r="200"/>
    <ellipse id="svg_6" class="st3" cx="488.01" cy="493.41" rx="190" ry="179.69" transform="translate(-165.42 727.17) rotate(-65)"/>
    <ellipse id="svg_7" class="st2" cx="487.77" cy="495.42" rx="159.35" ry="149.84" transform="translate(-167.38 728.11) rotate(-65)"/>
  </g>
  <path class="st1" d="M449.34,427.81l54.76-19.17,44.91,36.75-20.1,7.13-28.46-23.22-34.61,12.09-16.51-13.57ZM542.78,480.72l-16.45-13.57-34.69,12.09-28.39-23.21-20.15,7.12-3.64,20.65,28.35,23.22-6.22,35.27,16.54,13.59,20.15-7.12,6.22-35.27,34.64-12.11,3.63-20.66ZM532.91,536.7l3.65-20.69-20.1,7.13-3.64,20.65,20.09-7.09ZM544.66,546.3l-34.62,12.05-3.65,20.71,54.77-19.23,9.86-55.93-20.14,7.07-6.23,35.33ZM540.61,462.14l16.45,13.57-3.64,20.65,20.18-7.06,3.65-20.7-16.49-13.59-20.16,7.18v-.05ZM458.98,557.12l-3.64,20.65,16.54,13.59,20.15-7.12,3.64-20.62-20.14,7.07-16.5-13.58h-.05ZM433.24,519.08l16.45,13.57,3.64-20.65-16.45-13.58-3.65,20.72v-.06ZM477.68,451.04l16.54,13.58,20.15-7.12-16.49-13.59-20.16,7.18-.04-.04ZM431.34,453.54l20.15-7.12-16.45-13.58-20.19,7.17-3.65,20.68,16.49,13.53,3.65-20.68ZM425.12,488.81l-16.5-13.53-9.86,55.93,44.9,36.81,3.66-20.76-28.37-23.17,6.23-35.33-.06.05Z"/>
</svg>