<?xml version="1.0" encoding="UTF-8"?>
<svg id="_Слой_1" data-name="Слой_1" xmlns="http://www.w3.org/2000/svg" version="1.1" viewBox="0 0 1000 1000">
  <!-- Generator: Adobe Illustrator 30.2.0, SVG Export Plug-In . SVG Version: 2.1.1 Build 105)  -->
  <defs>
    <style>
      .st0, .st1 {
        fill: #fff;
      }

      .st2 {
        stroke-width: 10px;
      }

      .st2, .st1, .st3, .st4 {
        stroke: #000;
      }

      .st2, .st4 {
        fill: #e79124;
        stroke-miterlimit: 4;
      }

      .st1 {
        stroke-miterlimit: 10;
        stroke-width: 5px;
      }

      .st3 {
        fill: #6b4804;
        stroke-width: 10px;
      }

      .st4 {
        stroke-width: 7px;
      }
    </style>
  </defs>
  <g>
    <circle id="svg_4" class="st0" cx="500" cy="500" r="250"/>
    <circle id="svg_5" class="st3" cx="500" cy="500" r="200"/>
    <ellipse id="svg_6" class="st2" cx="488.01" cy="493.41" rx="190" ry="179.69" transform="translate(-165.42 727.17) rotate(-65)"/>
    <ellipse id="svg_7" class="st4" cx="487.77" cy="495.42" rx="159.35" ry="149.84" transform="translate(-167.38 728.11) rotate(-65)"/>
  </g>
  <path class="st1" d="M575.06,465.25c.94-26.41-20.42-38.13-48.51-44.38l4.78-36.17-22.03-2.91-4.66,35.22c-5.78-.77-11.71-1.43-17.61-2.09l4.69-35.45-22.01-2.91-4.79,36.16c-4.78-.53-9.47-1.06-14.04-1.66v-.11s-30.36-4.03-30.36-4.03l-3.1,23.52s16.3,1.84,15.99,2.1c8.92,1.18,11.14,6.74,11.39,11.32l-5.45,41.21c.61.08,1.41.22,2.31.46l-2.32-.31-7.65,57.73c-.76,2.76-3,7.01-9.24,6.2.25.29-16.01-2.12-16.01-2.12l-7.85,25.72,28.66,3.79c5.33.71,10.57,1.5,15.71,2.21l-4.83,36.59,21.99,2.91,4.79-36.2c6.02.92,11.85,1.75,17.56,2.49l-4.77,36.03,22.02,2.91,4.84-36.52c37.3,2.77,64.45-3.13,72.25-37.46,6.3-27.65-5.21-41.88-25.56-49.71,13.62-4.82,23.12-15.22,23.78-34.55h0ZM533.91,539.41c-3.61,27.34-50.01,18.05-64.94,16.08l6.42-48.47c14.93,1.98,62.28,3.87,58.53,32.39h0ZM532.7,469.66c-3.3,24.87-41.96,16.81-54.39,15.17l5.81-43.96c12.44,1.64,52.01,2.85,48.58,28.8Z"/>
</svg>