<?xml version="1.0" encoding="UTF-8"?>
<svg id="_Слой_1" data-name="Слой_1" xmlns="http://www.w3.org/2000/svg" version="1.1" viewBox="0 0 1000 1000">
  <!-- Generator: Adobe Illustrator 30.2.0, SVG Export Plug-In . SVG Version: 2.1.1 Build 105)  -->
  <defs>
    <style>
      .st0 {
        fill: #7785cc;
        stroke: #000;
        stroke-width: 35px;
      }

      .st1 {
        fill: #c0cce6;
      }

      .st2 {
        fill: #c3c7e2;
      }

      .st3 {
        fill: #dce8f4;
      }

      .st4 {
        fill: #fcfeff;
      }

      .st5 {
        fill: #fefeff;
      }

      .st6 {
        fill: #e8f1ff;
      }
    </style>
  </defs>
  <circle id="svg_7" class="st0" cx="500" cy="500" r="250"/>
  <g>
    <polygon class="st6" points="499.98 312.74 497.47 321.27 497.47 568.91 499.98 571.41 614.93 503.47 499.98 312.74"/>
    <polygon class="st2" points="499.98 312.74 385.03 503.47 499.98 571.42 499.98 451.22 499.98 312.74"/>
    <polygon class="st3" points="499.98 593.18 498.56 594.9 498.56 683.12 499.98 687.25 615 525.27 499.98 593.18"/>
    <polygon class="st1" points="499.98 687.25 499.98 593.18 385.03 525.27 499.98 687.25"/>
    <polygon class="st4" points="499.98 571.41 614.93 503.47 499.98 451.22 499.98 571.41"/>
    <polygon class="st5" points="385.03 503.47 499.98 571.41 499.98 451.22 385.03 503.47"/>
  </g>
</svg>