<?xml version="1.0" encoding="UTF-8"?>
<svg id="_Слой_1" data-name="Слой_1" xmlns="http://www.w3.org/2000/svg" version="1.1" viewBox="0 0 520 520">
  <!-- Generator: Adobe Illustrator 30.2.0, SVG Export Plug-In . SVG Version: 2.1.1 Build 105)  -->
  <defs>
    <style>
      .st0 {
        fill: #fff;
      }

      .st1 {
        fill: #d00;
      }
    </style>
  </defs>
  <circle id="svg_7" class="st1" cx="260" cy="260" r="250"/>
  <g id="tron">
    <path class="st0" d="M447.76,217.72c-17.54-16.19-41.79-40.92-61.56-58.46l-1.17-.82c-1.95-1.56-4.14-2.79-6.49-3.62h0c-47.67-8.88-269.38-50.34-273.71-49.81-1.22.17-2.38.61-3.41,1.29l-1.09.88c-1.37,1.39-2.41,3.06-3.04,4.91l-.3.74v4.8c24.97,69.53,123.53,297.25,142.93,350.67,1.17,3.62,3.39,10.52,7.55,10.87h.93c2.21,0,11.69-12.54,11.69-12.54,0,0,169.3-205.28,186.43-227.15,2.22-2.69,4.18-5.59,5.84-8.65.87-4.87-.89-9.84-4.62-13.1ZM303.57,241.63l72.23-59.9,42.38,39.05-114.61,20.85ZM275.54,237.71l-124.46-101.95,201.27,37.12-76.81,64.83ZM286.76,264.43l127.32-20.52-145.63,175.38,18.3-154.85ZM134.18,145.94l130.89,111.05-18.95,162.42-111.95-273.47Z"/>
  </g>
</svg>