<?xml version="1.0" encoding="UTF-8"?>
<svg id="_Слой_1" data-name="Слой_1" xmlns="http://www.w3.org/2000/svg" version="1.1" viewBox="0 0 520 520">
  <!-- Generator: Adobe Illustrator 30.2.0, SVG Export Plug-In . SVG Version: 2.1.1 Build 105)  -->
  <defs>
    <style>
      .st0 {
        fill: #fff;
      }

      .st1 {
        fill: #fa911e;
      }
    </style>
  </defs>
  <circle id="svg_7" class="st1" cx="260" cy="260" r="250"/>
  <path class="st0" d="M394.18,222.47c6.01-40.24-24.63-61.87-66.52-76.3l13.59-54.51-33.19-8.27-13.23,53.07c-8.71-2.17-17.67-4.22-26.57-6.26l13.32-53.42-33.16-8.27-13.6,54.49c-7.22-1.64-14.31-3.27-21.19-4.98l.04-.17-45.75-11.42-8.83,35.44s24.62,5.64,24.1,5.99c13.44,3.35,15.88,12.25,15.46,19.3l-15.48,62.09c.93.24,2.13.58,3.45,1.11l-3.5-.87-21.71,86.98c-1.64,4.08-5.81,10.21-15.2,7.88.33.48-24.12-6.02-24.12-6.02l-16.47,37.99,43.18,10.76c8.03,2.01,15.9,4.12,23.64,6.1l-13.73,55.14,33.14,8.27,13.61-54.54c9.04,2.46,17.83,4.72,26.43,6.86l-13.55,54.29,33.18,8.27,13.73-55.03c56.57,10.71,99.13,6.39,117.01-44.77,14.43-41.2-.71-64.97-30.47-80.47,21.68-5.02,38.01-19.28,42.36-48.73h0ZM318.37,328.77c-10.26,41.2-79.62,18.94-102.12,13.34l18.22-73.04c22.49,5.61,94.6,16.73,83.91,59.69h0ZM328.62,221.88c-9.36,37.48-67.09,18.44-85.83,13.77l16.52-66.24c18.74,4.67,79.06,13.38,69.31,52.47Z"/>
</svg>