<?xml version="1.0" encoding="UTF-8"?>
<svg id="_Слой_1" data-name="Слой_1" xmlns="http://www.w3.org/2000/svg" version="1.1" viewBox="0 0 1000 1000">
  <!-- Generator: Adobe Illustrator 30.2.0, SVG Export Plug-In . SVG Version: 2.1.1 Build 105)  -->
  <defs>
    <style>
      .st0 {
        fill: #fff;
      }

      .st1 {
        fill: #eba704;
        stroke: #000;
        stroke-width: 35px;
      }
    </style>
  </defs>
  <circle id="svg_7" class="st1" cx="500" cy="500" r="250"/>
  <g id="Logo">
    <g>
      <g id="Triangles">
        <polygon class="st0" points="589.57 556.14 589.54 556.15 500 645.7 410.48 556.18 410.44 556.14 443.4 523.26 443.4 523.26 500 579.84 556.61 523.23 589.57 556.14"/>
        <polygon class="st0" points="589.54 443.85 556.61 476.77 500 420.16 443.4 476.74 410.48 443.82 500 354.3 589.54 443.85"/>
      </g>
      <g id="Rectangles">
        <rect class="st0" x="589.49" y="476.74" width="46.57" height="46.57" transform="translate(-174.09 579.75) rotate(-45)"/>
        <rect class="st0" x="363.94" y="476.72" width="46.57" height="46.57" transform="translate(-240.14 420.26) rotate(-45)"/>
        <path class="st0" d="M533.4,499.99h.01l-33.42-33.42-24.69,24.69h0l-2.83,2.83-5.85,5.85-.04.04.04.04,33.39,33.39,33.42-33.42h.01s-.04-.01-.04-.01"/>
      </g>
    </g>
  </g>
</svg>