<?xml version="1.0" encoding="UTF-8"?>
<svg id="_Слой_1" data-name="Слой_1" xmlns="http://www.w3.org/2000/svg" version="1.1" viewBox="0 0 520 520">
  <!-- Generator: Adobe Illustrator 30.2.0, SVG Export Plug-In . SVG Version: 2.1.1 Build 105)  -->
  <defs>
    <style>
      .st0 {
        fill: #fff;
      }

      .st1 {
        fill: #ffce19;
      }
    </style>
  </defs>
  <circle id="svg_7" class="st1" cx="260" cy="260" r="250"/>
  <g id="Logo">
    <g>
      <g id="Triangles">
        <polygon class="st0" points="368.71 328.13 368.68 328.15 260 436.84 151.35 328.19 151.29 328.13 191.31 288.23 191.31 288.23 260 356.9 328.71 288.19 368.71 328.13"/>
        <polygon class="st0" points="368.68 191.85 328.71 231.81 260 163.1 191.31 231.77 151.35 191.81 260 83.16 368.68 191.85"/>
      </g>
      <g id="Rectangles">
        <rect class="st0" x="368.62" y="231.76" width="56.52" height="56.52" transform="translate(-67.62 356.79) rotate(-45)"/>
        <rect class="st0" x="94.86" y="231.74" width="56.52" height="56.52" transform="translate(-147.79 163.21) rotate(-45)"/>
        <path class="st0" d="M300.54,259.98h.02l-40.56-40.56-29.96,29.96h0l-3.44,3.44-7.1,7.1-.05.05.05.05,40.52,40.52,40.56-40.56.02-.02h-.05"/>
      </g>
    </g>
  </g>
</svg>