<?xml version="1.0" encoding="UTF-8"?>
<svg id="_Слой_1" data-name="Слой_1" xmlns="http://www.w3.org/2000/svg" version="1.1" viewBox="0 0 1000 1000">
  <!-- Generator: Adobe Illustrator 30.2.0, SVG Export Plug-In . SVG Version: 2.1.1 Build 105)  -->
  <defs>
    <style>
      .st0 {
        fill: #fff;
      }

      .st1 {
        fill: #c13325;
        stroke: #000;
        stroke-width: 35px;
      }
    </style>
  </defs>
  <circle id="svg_7" class="st1" cx="500" cy="500" r="250"/>
  <g id="tron">
    <path class="st0" d="M675.48,460.62c-16.25-15-38.72-37.91-57.03-54.16l-1.08-.76c-1.8-1.45-3.84-2.58-6.01-3.36h0c-44.17-8.23-249.57-46.64-253.58-46.15-1.13.16-2.21.56-3.16,1.2l-1.01.81c-1.27,1.28-2.23,2.84-2.82,4.55l-.27.68v4.44c23.13,64.42,114.45,275.39,132.42,324.88,1.09,3.36,3.14,9.75,6.99,10.07h.86c2.05,0,10.83-11.62,10.83-11.62,0,0,156.85-190.18,172.72-210.44,2.06-2.49,3.87-5.18,5.41-8.02.8-4.51-.82-9.12-4.28-12.13ZM541.9,482.77l66.91-55.49,39.27,36.18-106.18,19.32ZM515.93,479.14l-115.31-94.45,186.47,34.39-71.17,60.07ZM526.33,503.9l117.96-19.02-134.92,162.48,16.96-143.47ZM384.97,394.11l121.27,102.88-17.55,150.48-103.71-253.36Z"/>
  </g>
</svg>