<svg viewBox="260 260 460 460" xmlns="http://www.w3.org/2000/svg">

 <g>
  <title>Layer 1</title>
  <g stroke="null" id="svg_1" fill-rule="evenodd" fill="none">
   <circle stroke="null" id="svg_2" fill="#26A17B" r="221.74037" cy="488.41382" cx="490.64501"/>
   <path stroke="null" id="svg_3" d="m519.71465,508.3609l0,-0.02885c-1.66372,0.11538 -10.23941,0.60577 -29.37214,0.60577c-15.27593,0 -26.02958,-0.43269 -29.81075,-0.60577l0,0.04327c-58.80477,-2.46634 -102.6966,-12.23075 -102.6966,-23.91343c0,-11.66825 43.89183,-21.43266 102.6966,-23.94227l0,38.13456c3.84167,0.25962 14.85244,0.87981 30.06787,0.87981c18.25549,0 27.40593,-0.72115 29.11502,-0.86538l0,-38.12014c58.68377,2.49519 102.46973,12.2596 102.46973,23.91343c0,11.68268 -43.78596,21.41824 -102.46973,23.899m0,-51.77877l0,-34.12495l81.88504,0l0,-52.03839l-222.95296,0l0,52.03839l81.88504,0l0,34.11053c-66.54861,2.91346 -116.59619,15.49036 -116.59619,30.54803c0,15.05767 50.04758,27.62015 116.59619,30.54803l0,109.35561l59.18289,0l0,-109.38446c66.44274,-2.91346 116.36932,-15.47594 116.36932,-30.51919c0,-15.04325 -49.92658,-27.60573 -116.36932,-30.53361" fill="#FFF"/>
  </g>
 </g>
</svg>