<?xml version="1.0" encoding="UTF-8"?>
<svg id="_Слой_1" data-name="Слой_1" xmlns="http://www.w3.org/2000/svg" version="1.1" viewBox="0 0 520 520">
  <!-- Generator: Adobe Illustrator 30.2.0, SVG Export Plug-In . SVG Version: 2.1.1 Build 105)  -->
  <defs>
    <style>
      .st0 {
        fill: #fff;
      }

      .st1 {
        fill: #3278b6;
      }
    </style>
  </defs>
  <circle id="svg_7" class="st1" cx="260" cy="260" r="250"/>
  <g>
    <path class="st0" d="M332.97,298.53c0-38.53-23.22-51.74-69.67-57.26-33.16-4.41-39.79-13.21-39.79-28.63s11.07-25.33,33.16-25.33c19.9,0,30.97,6.6,36.48,23.13.57,1.6,1.62,2.98,3.01,3.96,1.38.98,3.04,1.52,4.74,1.53h17.69c1.02.03,2.04-.15,2.99-.53.95-.38,1.81-.95,2.54-1.67s1.3-1.58,1.68-2.53c.38-.95.57-1.96.55-2.99v-1.09c-2.16-11.96-8.21-22.87-17.21-31.03s-20.44-13.13-32.55-14.12v-26.41c0-4.41-3.32-7.71-8.84-8.82h-16.6c-4.41,0-7.73,3.3-8.84,8.82v25.33c-33.18,4.39-54.17,26.41-54.17,53.95,0,36.32,22.1,50.63,68.54,56.15,30.97,5.5,40.91,12.12,40.91,29.73s-15.48,29.72-36.48,29.72c-28.76,0-38.7-12.1-42.02-28.63-1.09-4.39-4.43-6.6-7.75-6.6h-18.8c-1.02-.03-2.04.16-2.98.54-.95.38-1.81.95-2.53,1.67-.72.72-1.29,1.58-1.67,2.53s-.57,1.96-.54,2.98v1.09c4.41,27.54,22.12,47.35,58.6,52.87v26.43c0,4.39,3.32,7.71,8.84,8.8h16.6c4.41,0,7.73-3.3,8.84-8.8v-26.45c33.18-5.5,55.28-28.63,55.28-58.36,0,0,0,.02,0,.02Z"/>
    <path class="st0" d="M203.61,414.15c-86.25-30.84-130.48-126.63-98.4-211.41,16.58-46.26,53.06-81.48,98.4-98,4.43-2.2,6.62-5.5,6.62-11.01v-15.42c0-4.39-2.2-7.69-6.62-8.8-1.11,0-3.32,0-4.43,1.09-24.88,7.77-47.98,20.39-67.97,37.12-19.99,16.74-36.47,37.26-48.49,60.39-12.02,23.13-19.35,48.41-21.56,74.38-2.21,25.97.73,52.13,8.67,76.96,19.88,61.68,67.43,109.03,129.35,128.85,4.43,2.2,8.85,0,9.94-4.41,1.11-1.09,1.11-2.21,1.11-4.41v-15.42c0-3.3-3.3-7.69-6.62-9.91ZM320.81,70.61c-4.43-2.21-8.85,0-9.94,4.39-1.11,1.11-1.11,2.21-1.11,4.41v15.42c0,4.41,3.3,8.8,6.62,11.01,86.25,30.84,130.48,126.63,98.4,211.41-16.58,46.26-53.07,81.48-98.4,98-4.43,2.2-6.62,5.5-6.62,11.01v15.42c0,4.39,2.2,7.69,6.62,8.8,1.11,0,3.32,0,4.43-1.09,24.88-7.77,47.98-20.39,67.97-37.12,19.99-16.73,36.47-37.26,48.49-60.39,12.02-23.13,19.35-48.41,21.56-74.38,2.21-25.97-.73-52.13-8.67-76.96-19.88-62.77-68.54-110.12-129.35-129.93Z"/>
  </g>
</svg>