<svg viewBox="240 240 520 520" xmlns="http://www.w3.org/2000/svg">
 <g>
  <title>Layer 1</title>
  <ellipse fill="#00b4ff" stroke="#000000" cx="500" cy="500" id="svg_7" rx="250" ry="250" stroke-width="35"/>
  <path fill="#ffffff" d="m633.14541,442.10297l-122.98303,220.76796a16.61509,18.73011 0 0 1 -28.12026,-0.10602l-120.58482,-220.76796a34.48415,38.87382 0 0 1 -5.14127,-20.56779a35.89487,40.46411 0 0 1 36.42781,-39.84567l209.44421,0c20.01648,-0.01767 36.27106,17.75827 36.27106,39.73965c0,7.29768 -1.81826,14.48933 -5.31369,20.76215m-242.06308,-7.4037l89.70582,155.9547l0,-171.64559l-80.3324,0c-9.27937,0 -13.43315,6.92661 -9.37342,15.72623m122.88898,155.9547l89.73717,-155.99004c4.15377,-8.78195 -0.09405,-15.72623 -9.38909,-15.72623l-80.31673,0l-0.03135,171.71627z" id="svg_1" stroke-width="0" stroke="#000000"/>
 </g>

</svg>