<svg viewBox="240 240 520 520" xmlns="http://www.w3.org/2000/svg">

 <g>
  <title>Layer 1</title>
  <ellipse stroke-width="0" stroke="#000000" ry="250" rx="250" id="svg_2" cy="500" cx="500" fill="#ffffff"/>
  <ellipse stroke-width="10" ry="200" rx="200" id="svg_3" cy="500" cx="500" stroke="#000000" fill="#0f3c60"/>
  <ellipse transform="rotate(25 488.824 494.064)" stroke="#000000" stroke-width="10" ry="186.11715" rx="180.20681" id="svg_4" cy="494.06376" cx="488.82428" fill="#00b1ff"/>
  <ellipse transform="rotate(25 488.724 495.437)" stroke="#000000" ry="157.43428" rx="151.9198" id="svg_5" cy="495.43719" cx="488.72436" stroke-width="5" fill="#00b1ff"/>
  <path transform="rotate(10 488.051 508.676)" stroke="#000000" stroke-width="7" id="svg_1" d="m583.79645,439.5359l-86.73546,180.69974a11.71802,15.3307 0 0 1 -19.8322,-0.08678l-85.04409,-180.69974a24.32042,31.81843 0 0 1 -3.62595,-16.83484a25.31535,33.12009 0 0 1 25.69121,-32.61389l147.71339,0c14.1169,-0.01446 25.58066,14.53524 25.58066,32.52711c0,5.97319 -1.28235,11.8596 -3.74756,16.99393m-170.71829,-6.05996l63.26626,127.64974l0,-140.49281l-56.65552,0c-6.5444,0 -9.47391,5.66947 -6.61073,12.872m86.66913,127.64974l63.28837,-127.67867c2.92951,-7.18807 -0.06633,-12.872 -6.62179,-12.872l-56.64447,0l-0.02211,140.55067z" fill="#ffffff"/>
 </g>
</svg>