<?xml version="1.0" encoding="UTF-8"?>
<svg id="_Слой_1" data-name="Слой_1" xmlns="http://www.w3.org/2000/svg" version="1.1" viewBox="240 240 520 520">
  <!-- Generator: Adobe Illustrator 30.2.0, SVG Export Plug-In . SVG Version: 2.1.1 Build 105)  -->
  <defs>
    <style>
      .st0, .st1 {
        fill: #fff;
      }

      .st2 {
        fill: #1b486f;
        stroke-width: 10px;
      }

      .st2, .st1, .st3, .st4 {
        stroke: #000;
      }

      .st1 {
        stroke-miterlimit: 10;
        stroke-width: 5px;
      }

      .st3 {
        stroke-width: 10px;
      }

      .st3, .st4 {
        fill: #447bb4;
        stroke-miterlimit: 4;
      }

      .st4 {
        stroke-width: 7px;
      }
    </style>
  </defs>
  <g>
    <circle id="svg_4" class="st0" cx="500" cy="500" r="250"/>
    <circle id="svg_5" class="st2" cx="500" cy="500" r="200"/>
    <ellipse id="svg_6" class="st3" cx="488.01" cy="493.41" rx="190" ry="179.69" transform="translate(-165.42 727.17) rotate(-65)"/>
    <ellipse id="svg_7" class="st4" cx="487.77" cy="495.42" rx="159.35" ry="149.84" transform="translate(-167.38 728.11) rotate(-65)"/>
  </g>
  <g>
    <path class="st1" d="M524.56,525.75c3.75-21.29-7.79-30.84-32.91-38.41-17.89-5.67-20.69-11.17-19.19-19.69s8.58-12.91,20.79-10.76c10.99,1.94,16.46,6.66,17.9,16.33.16.94.61,1.81,1.28,2.48.67.68,1.53,1.13,2.47,1.31l9.77,1.72c.56.11,1.14.11,1.7,0,.56-.12,1.09-.35,1.56-.67s.87-.75,1.17-1.23c.3-.49.51-1.03.59-1.6l.11-.6c-.03-6.82-2.31-13.43-6.48-18.82-4.18-5.39-10.01-9.24-16.61-10.97l2.57-14.59c.43-2.44-1.08-4.58-4.02-5.73l-9.17-1.62c-2.44-.43-4.59,1.07-5.74,4.01l-2.47,13.99c-18.76-.81-32.5,9.31-35.18,24.53-3.54,20.06,7.27,30.12,32.39,37.69,16.57,6.05,21.42,10.68,19.7,20.41-1.71,9.72-11.44,14.91-23.05,12.86-15.88-2.8-20.2-10.45-20.42-19.91-.17-2.53-1.8-4.08-3.64-4.4l-10.38-1.83c-.56-.11-1.14-.11-1.7,0-.56.12-1.09.35-1.56.67-.47.33-.87.75-1.17,1.23s-.5,1.03-.59,1.59l-.11.6c-.25,15.64,7.6,28.31,27.22,34.91l-2.57,14.6c-.43,2.43,1.08,4.58,4.02,5.72l9.17,1.62c2.44.43,4.59-1.07,5.74-4l2.58-14.61c18.86.2,33.32-10.43,36.22-26.85,0,0,0,.01,0,.01Z"/>
    <path class="st1" d="M441.85,577.02c-44.64-25.44-59.74-82.66-33.76-126.36,13.67-23.94,37.25-39.84,63.9-44.55,2.66-.78,4.19-2.39,4.73-5.44l1.5-8.52c.43-2.43-.46-4.46-2.8-5.51-.61-.11-1.83-.32-2.55.17-14.5,1.87-28.49,6.59-41.16,13.89-12.67,7.3-23.77,17.03-32.67,28.63-8.89,11.61-15.4,24.86-19.16,38.99-3.75,14.13-4.67,28.87-2.71,43.36,4.98,36.01,26.63,66.8,58.9,83.77,2.23,1.64,4.89.86,5.92-1.47.72-.49.83-1.11,1.04-2.33l1.5-8.52c.32-1.82-1.07-4.57-2.69-6.12ZM540.04,398.67c-2.23-1.65-4.89-.86-5.92,1.46-.72.5-.83,1.11-1.04,2.33l-1.5,8.52c-.43,2.44.97,5.18,2.59,6.73,44.64,25.44,59.74,82.66,33.76,126.36-13.67,23.94-37.25,39.84-63.9,44.55-2.66.78-4.19,2.39-4.73,5.44l-1.5,8.52c-.43,2.43.46,4.46,2.8,5.51.61.11,1.83.32,2.55-.17,14.5-1.87,28.49-6.59,41.16-13.89,12.67-7.3,23.77-17.03,32.67-28.63,8.89-11.61,15.4-24.86,19.16-38.99,3.75-14.13,4.67-28.87,2.71-43.36-4.87-36.61-27.13-67.51-58.8-84.37Z"/>
  </g>
</svg>