<svg viewBox="240 240 520 520" xmlns="http://www.w3.org/2000/svg">
 <g>
  <title>Layer 1</title>
  <ellipse stroke-width="0" ry="250" rx="250" id="svg_4" cy="500" cx="500" stroke="#000000" fill="#ffffff"/>
  <ellipse stroke-width="10" ry="200" rx="200" id="svg_5" cy="500" cx="500" stroke="#000000" fill="#00523d"/>
  <ellipse transform="rotate(25 488.006 493.41)" stroke="#000000" ry="190.00208" rx="179.68794" id="svg_6" cy="493.40968" cx="488.00574" stroke-width="10" fill="#26A17B"/>
  <ellipse transform="rotate(25 487.767 495.422)" stroke="#000000" ry="159.34976" rx="149.84371" id="svg_7" cy="495.42221" cx="487.76674" stroke-width="7" fill="#26A17B"/>
  <path transform="rotate(8.60899 485.839 507.564)" stroke="#000000" stroke-width="2" fill="#FFF" d="m508.07597,515.66051l0,-0.02423c-1.24548,0.09689 -7.66533,0.50868 -21.98829,0.50868c-11.43572,0 -19.48601,-0.36334 -22.31664,-0.50868l0,0.03634c-44.02186,-2.07106 -76.87973,-10.27053 -76.87973,-20.08083c0,-9.79818 32.85788,-17.99766 76.87973,-20.10505l0,32.02275c2.87591,0.21801 11.11869,0.7388 22.50912,0.7388c13.66625,0 20.51636,-0.60557 21.7958,-0.72669l0,-32.01064c43.93128,2.09529 76.7099,10.29476 76.7099,20.08083c0,9.8103 -32.77862,17.98555 -76.7099,20.06872m0,-43.48021l0,-28.65576l61.29999,0l0,-43.69822l-166.90489,0l0,43.69822l61.29999,0l0,28.64365c-49.81898,2.44652 -87.28511,13.00773 -87.28511,25.65211c0,12.64438 37.46613,23.19348 87.28511,25.65211l0,91.82923l44.30492,0l0,-91.85345c49.73972,-2.44652 87.11527,-12.99562 87.11527,-25.62789c0,-12.63227 -37.37555,-23.18137 -87.11527,-25.64" id="svg_3"/>
 </g>

</svg>